<svg xmlns="http://www.w3.org/2000/svg" viewBox="0 0 686.02 149.98"><rect width="100%" height="100%" fill="#333399" /><g data-name="レイヤー 2"><path d="M109.42 15.12h14.35v65.1h-14.32zm292.43 65h14.35V15h-14.37zm-185.33-65l29.62 65.09H230l-5.36-12.52h-28.37l-5.18 12.51H155.6l-28.45-34.61 27.23-30.48h18.76l-27.68 30.25 29.94 34.56 29.26-64.83zm2.87 40.44L210.18 34l-8.89 21.5zM508.94 15l29.62 65.09h-16.19L517 67.57h-28.31l-5.18 12.53H448l-28.44-34.61L446.79 15h18.76l-27.68 30.27 29.94 34.56L497.08 15zm2.87 40.44l-9.21-21.5-8.89 21.5zM686 80h-16.18l-5.37-12.52h-28.32L631 80.05h-15.87L644.52 15h11.86zm-26.75-24.61l-9.2-21.5-8.9 21.5zM310 32.62a34.13 34.13 0 013.08 15.17 31 31 0 01-3 13.93 29.73 29.73 0 01-8 10.12 35.93 35.93 0 01-11.67 6.22 45.75 45.75 0 01-13.9 2.11h-23.43v-65.1h21.51a61.66 61.66 0 0114.85 1.74 34.14 34.14 0 0112.28 5.65A27.73 27.73 0 01310 32.62zm-11.79 14.44a18.25 18.25 0 00-1.79-8.32 16.71 16.71 0 00-4.83-5.84 21.25 21.25 0 00-7.12-3.44 31.6 31.6 0 00-8.6-1.15h-8.47v38.62h7.45a40.32 40.32 0 009.24-1 19.7 19.7 0 007.4-3.36 16.07 16.07 0 004.91-6.16 21.68 21.68 0 001.81-9.35zm91.26-13.64a36.71 36.71 0 012.62 14.16 36.8 36.8 0 01-2.61 14.17 31.09 31.09 0 01-7.31 10.8 32 32 0 01-11.12 6.85 42.53 42.53 0 01-28.14 0 32.14 32.14 0 01-11.13-6.84 31.23 31.23 0 01-7.31-10.8 36.75 36.75 0 01-2.63-14.16 36.73 36.73 0 012.62-14.17 31.09 31.09 0 017.31-10.8 32.29 32.29 0 0111.12-6.86 42.67 42.67 0 0128.13 0 32.22 32.22 0 0111.13 6.85 31.12 31.12 0 017.32 10.8zM377.2 47.59a24 24 0 00-1.43-8.37 19.31 19.31 0 00-4.09-6.66 18.83 18.83 0 00-6.4-4.37 23 23 0 00-16.64 0 18.86 18.86 0 00-6.39 4.38 19.31 19.31 0 00-4.09 6.66 23.81 23.81 0 00-1.42 8.37 23.6 23.6 0 001.43 8.4 18.93 18.93 0 004.09 6.62 18.55 18.55 0 006.39 4.38 22.92 22.92 0 0016.65 0 18.65 18.65 0 006.39-4.37 19.3 19.3 0 004.08-6.63 23.83 23.83 0 001.43-8.41zM607 15l-10.89 42.81h-.19L583.67 15h-13.34L558 56.73h-.18L547.42 15h-15.63l19.33 65.1h12.32L576.5 35h.19l13.08 45.06h12.78l19-65.11zM40.59 15a1.07 1.07 0 00-1.79-.74 5 5 0 00-.56 1.52 3.93 3.93 0 01-3.39 2.94 5.06 5.06 0 004.27-1 3.56 3.56 0 001.51-2.8zm-.46 4.2a3.44 3.44 0 002.48-2.7c.08-.73-.12-1.3-.79-1.2s-.84 1.23-1.13 1.72a4.71 4.71 0 01-3.78 2 2.26 2.26 0 001.49.35 6.48 6.48 0 001.77-.25zm7.52 70.21a1 1 0 01.22.7c0 .28-.26.38-.42.59-.3.43-.48.83-1.21.88 0-.07.09-.18.16-.29a.69.69 0 00-.16-1c.16-.68-.47-.54-1-.55-.15-.18-.09-.54-.2-.75-2-.33-3.37.87-4.59 1.83a6.15 6.15 0 00-1.21 1.07c-.5.78-.41 2.14-1.49 2.28a1.43 1.43 0 00.19 1.3c-.59 0-1.07-.31-1.1-1 0-.21.1-.39.09-.62s-.24-.42-.22-.68c0-.5.73-.73 1-1.24.14-.29.12-.77.33-1a2 2 0 01.58-.3 2 2 0 001.28-1.33c-.28.11-.44.45-.72.65s-.78.34-1.14.59-.43.52-.69.68a4.63 4.63 0 01-.55.16c-.78.37-.9 1.3-1.66 1.47h-.45c-.69.15-.59 1.88-.13 2.15a1.55 1.55 0 01-1.43-1.31 3.67 3.67 0 01.1-.71c0-.45-.3-.89-.26-1.2s.45-.44.61-.63c.36-.38.48-1 .92-1.27a10.64 10.64 0 001.3-.45c.35-.23.66-.73.94-.79a6.47 6.47 0 01.65.07 1.44 1.44 0 001.31-.91c-.43-.15-.53.42-.91.49-.54.09-.82-.33-1.28-.26s-.44.54-.71.75-.89.33-1.34.61c-.63.42-1.27 1.09-2.05 1.67-.33.24-.66.46-1.07.78s-.9.62-.92.94c0 .56.68.93.88 1.27a1 1 0 00.26.75c-.63-.1-1.31-.06-1.72-.58a3.65 3.65 0 01-.62-2c.13-.63 1.36-.94 1.76-1.36.16-.18.22-.41.36-.56.3-.3.72-.35.88-.72a6.53 6.53 0 01-1.6.52c-.54.16-1 .5-1.46.66s-1.33.09-1.5.52.37.91 0 1.3c.17.21.42.66.19 1-.22-.19-.24-.48-.56-.59s-.42 0-.64-.1a3.35 3.35 0 01-.2-1.4 3.7 3.7 0 01.1-1.46c.26-.49 1.26-.35 1.86-.45.34-.07.69-.22 1.07-.27 1.13-.14 2.67 0 3.16-.75-.45.08-.93.29-1.56.36-.94.11-2.06-.15-2.55.37 0-.43-.11-.83.14-1s.49 0 .81 0c.5-.06.92-.53 1.63-.55s1.35.46 2.08.19.78-1.44.94-2.44c.53-3.27 1-6.64 1.4-10a5.57 5.57 0 00.17-1.85 4.75 4.75 0 00-1.15-1.37 68.849 68.849 0 00-3.9-3.58c-1.7-1.52-3.54-3.22-5.09-4.83-3.16-3.28-6.06-7.36-5.44-14.15a12.51 12.51 0 01.92-4c1.51-3.32 4.41-5.55 7.68-7.16A38 38 0 0035.1 35a11.22 11.22 0 002.44-2.52 6.6 6.6 0 001.07-5.72c-.27-.89-.79-2.11-2-1.89-1.57.27-2.83 1.26-4.24 1.85a5 5 0 01-1.52.49c-.35 0-.74-.08-1.08 0-1.09.18-1.29 1.69-1.85 2.38a3.9 3.9 0 01.35-4.3 6.08 6.08 0 01-.13-1.72 10.22 10.22 0 00-.32-1 3.38 3.38 0 010-1.58c.07-.19.27-.5.52-.5.46 0 .35.68.66.92.52-.37.6-1.06.87-1.6a5.3 5.3 0 012.42-2.55 2.78 2.78 0 011.92-.35c.09.68-.62 1.29-.49 2.12a13.05 13.05 0 015.28 1.2c1.51.69 2.86 1.51 4.26 2.31a5.1 5.1 0 01-2.26-.26 3.13 3.13 0 00.66.65 8.67 8.67 0 011.69 2.31c.61 1.22.92 2.59 1.5 3.88-.12.06-.2-.11-.29-.2a5 5 0 01-.85-1c-.32-.5-.58-1.11-1.14-1.33a7 7 0 01.93 2.77c.11 1.32 0 2.93.11 4.26-.26-.16-.27-.52-.35-.81s-.19-.57-.29-.84c-.21-.56-.37-1.19-.92-1.41-.42 4.67-3.47 6.89-5.92 9.64-2.31 2.59-5 5.77-4.13 10.94a14.81 14.81 0 012-6.8c2.42-1.31 5.48-.37 6.48 1.53a4.86 4.86 0 01.17 3.93c-.71 1.74-2.21 2.67-4.57 2.84a3.3 3.3 0 002.38-.13 4.93 4.93 0 001.83-1c1.61 1.41 5.21.92 6.54-.46s.87-4.56-1-4.88a19.15 19.15 0 004.72-1.76c.95-.61 1.86-1.35 2.87-2a3.19 3.19 0 011-.55c1.33-.11 1.22 2.2.94 3.22a4.26 4.26 0 01-.91 1.79c-1 1.13-2.5 1.46-3.74 2.05 1.75.14 3.09-1 4.23-1.53a3 3 0 01-.78 1.56c-.92 1.19-2.39 2.74-4.39 2.74-.53 0-.88-.19-1.4-.23a2.81 2.81 0 002.66.52c-.23.73-1 1.24-1.75 1.73a5.49 5.49 0 01-4.26.78A6 6 0 0142.39 53a3.07 3.07 0 001 1.14 4.26 4.26 0 001.25.85c.2.08.47 0 .68.19-.08.37-.51.44-.85.53-2.47.66-6.67.22-8-1.11a2.13 2.13 0 01-.58-1.43 1.52 1.52 0 00.13 1.56c-.45.06-.37.63-.76.69-.71.1-1.09-1.26-1.13-2v-.88c-.61.36-.49 1.69 0 2.48s1.13 1.3 1.72.62c.11-.12.25-.37.42-.39.33-.05.56.27.82.42a6.75 6.75 0 002 .58 15.68 15.68 0 004.79 0c.74-.12 1.91-.27 2-1.15a6.15 6.15 0 003.84-1.1 5.36 5.36 0 002.15-2.31 8.06 8.06 0 003.13-3.2c.19-.32.71-1 .58-1.5 0-.15-.07-.23-.36-.19.61-.94 1.35-3.82.36-4.95a1.3 1.3 0 00-1.82-.1c-.07-.09.05-.15.09-.2a18.67 18.67 0 004.08-8.63c.67-3.48.39-7.36-1.12-9.67-.22-.33-.47-.59-.65-.91a5.32 5.32 0 014.36 2A7.92 7.92 0 0162.28 29a17.46 17.46 0 01-1.52 8A20.35 20.35 0 0157 42.82a2.1 2.1 0 001-.62 13.93 13.93 0 004.52-6.84 18.62 18.62 0 00.88-5.63 15.26 15.26 0 00-1-5.46 8.35 8.35 0 014.36 5.56 13.91 13.91 0 01-.54 8.47C64.29 42.93 60.4 45.91 56 48a14.11 14.11 0 008.17-4.79 16.32 16.32 0 004.26-8.66 14 14 0 01-.62 8.33c-1.69 3.91-5.12 6.26-9.14 7.79a65.69 65.69 0 01-6.6 1.83c6.88.33 11.06-2.64 14.67-5.8.09-.08.27-.25.33-.2A14.28 14.28 0 0160 54.61c-3.41 1.64-8.66 1.69-13.35 1.08a7.5 7.5 0 003 .87c3.44.52 7.68.25 10.23-.91 0 .11-.17.24-.3.36a12.74 12.74 0 01-7.91 3.72c-3.85.27-7.12-1.49-9.48-2.94h-.06a10.43 10.43 0 008.77 3.91 10.93 10.93 0 01-8.34.69 10.76 10.76 0 01-5.34-4.86 9.53 9.53 0 004.69 5.64 8 8 0 01-5.79-2.93 23 23 0 01-3.65-5.14 11.16 11.16 0 003.32 6.11 10.48 10.48 0 006.44 3 25.15 25.15 0 008.35-1c7.43-1.87 13-6 16.24-12A28.64 28.64 0 0070 36.89a20.3 20.3 0 010-2.34c.21-1.49 2-2.37 3.75-1.66a6.6 6.6 0 013.39 4 14.72 14.72 0 01.29 6.61 24.21 24.21 0 01-4.29 10.55 28.47 28.47 0 01-7.55 7.3 25.82 25.82 0 01-10.82 4c2.14 2.56 5.68 3.74 10.43 3.68a11.24 11.24 0 01-5.57 1.46 17.34 17.34 0 01-7.23-1.72 34.63 34.63 0 01-5.6-3.32 16.85 16.85 0 004.76 4.16 53.89 53.89 0 005.66 3.23 18.24 18.24 0 01-5.73-1.14 42 42 0 01-11.2-6.08c-.32-.24-.64-.53-1-.78s-.62-.67-1.07-.59a3.59 3.59 0 00.91 1.65c.36.52.75 1 1 1.51a10 10 0 00-2.34.55c.65.07 1.43 0 2.08.06a28.44 28.44 0 003.2 3.71 8.77 8.77 0 001.17 1.12c1.57 1.06 4.74.54 6.7.15-1.13 1.44-3.37 2-6.05 1.86a3.19 3.19 0 00-1 0c-.4.13-.54 1-.71 1.53A39.19 39.19 0 0042.15 82a3.74 3.74 0 002.6-.14c-.15 1.24-1.52 1.59-2.87 1.7-.16.91-.29 1.8-.41 2.87a1.85 1.85 0 000 .94c.25.46 2 .21 2.54.16a6.66 6.66 0 012.63 0c.48.18.79 1.27 1.05 1.8zm8.55-26.47A26.64 26.64 0 0068.54 55a19 19 0 005.08-15.07A24.4 24.4 0 0172 48.39c-2.88 7.2-9 11.33-15.8 14.55zM39.28 88.19c-.4 1-2 .77-2.79 1.46-.41.32-.73 1.12-1.19 1.21-.21 0-.4-.08-.61-.07a.89.89 0 00-.75.63c.38-.44 1.27 0 1.76-.3.21-.15.21-.37.43-.65.87-1.09 2.87-.86 3.15-2.28zM41.14 77c.07-.47.23-1 .32-1.57a8.22 8.22 0 00.23-1.69c-.06-.23-.71-.64-1-.85a29.79 29.79 0 01-6.4-6.38c.05-.26.46-.5.42-.65a19.53 19.53 0 00-3.19.88h2.28a25.25 25.25 0 011.81 2.41 8.49 8.49 0 00-1.46.68c.36.12.8-.15 1.13-.06s.64.67.86.94l.81 1a17.89 17.89 0 001.61 2 1.7 1.7 0 001 .39 2.44 2.44 0 001.27-.35c-.09 1.49-2.15 1.74-3.38 1.14-.43 2-.7 4.09-1.18 6 .58.65 1.81.72 3 .62a1.73 1.73 0 01-.72.88 5 5 0 01-2.51.39c-.16.92-.29 2-.41 3a2.71 2.71 0 00-.07 1c.08.15.48.24.66.26.7.07 1.53-.13 2.21-.13.18.09.11.27.29.36a1.16 1.16 0 001-.3c.6-3.18.91-6.67 1.42-9.97zm-4.26-49.4c.14.52 0 1.92.59 2a.65.65 0 00.49-.27c.71-1 .07-3.49-.66-3.86a1.15 1.15 0 00-.68-.11c-1.5.13-2.23 1.22-3.58 1.53a2.72 2.72 0 011.34 2.28c.1.62.09 1.45.39 1.8a1 1 0 001.17.06c.76-.54.86-2.32.49-3.42-.19-.57-.6-.91-.71-1.3.72.02.99.69 1.16 1.31zm-20.41 9.54c-1 5.61-.15 12 2.25 15.44a2.51 2.51 0 00.56.61 15.83 15.83 0 01.06-4.46 6.21 6.21 0 00.2-1.4c-.07-.57-.33-1.23-.47-1.95a4.52 4.52 0 010-2.22c.37-.78 1.6-.66 1.87-1.6-2-.94-3.09-2.73-4.34-4.39-.04-.07-.08-.07-.13-.03zm61.61 13.32c-.1.47-.15 1.1-.2 1.6-.14 1.65-.19 3.21-.45 4.76a8.7 8.7 0 01-2.2 4.75c-1.09 1.19-2.57 2.13-3.59 3.39a4.74 4.74 0 00-.52 5s0 .21.17.16A5.76 5.76 0 0172.46 66a25.58 25.58 0 012.82-2.51 10.45 10.45 0 003.45-7.2c.18-1.67.19-3.34.46-4.85a10.53 10.53 0 011.7-3.64 13.85 13.85 0 001.65-3.65 10.74 10.74 0 000-4.82 21.92 21.92 0 01-.65 3.32 16.78 16.78 0 01-2.48 5.27 8.65 8.65 0 00-1.33 2.54zm-58.15-4.17a9.76 9.76 0 013-4.83s.05-.06 0-.06a1.78 1.78 0 01-1.31.26c-.21.85-1.41 1-1.85 1.54-.6.8-.07 2.28.16 3.09zm64-3.61a34.7 34.7 0 01-1.56 3.71c-.58 1.12-1.28 2.17-1.86 3.32-1.21 2.43-.78 5.95-1.49 8.87s-2.5 4.42-4.29 6.09a8.42 8.42 0 00-2.4 2.77 7.14 7.14 0 00-.46 2.11A17.48 17.48 0 0171.7 72a2.61 2.61 0 01-3 2 3.38 3.38 0 01-1.39-.55c-.24-.17-.74-.62-.63-1s.59-.39 1-.29c.66.16 1.23.22 1.37-.43.2-.93-1-1.66-2-1.63a2.1 2.1 0 00-1.75 1.31 2.69 2.69 0 00.74 2.67 3.4 3.4 0 002.48 1.1 3.88 3.88 0 004.13-3c.16-.8.09-1.74.17-2.68.17-2.31 1.49-3.2 2.8-4.39a12.58 12.58 0 003.74-5 15.45 15.45 0 00.64-3.78c.14-1.34.31-2.67.46-3.91.48-3.7 3.49-5.63 3.45-9.7.03-.03.03-.04 0-.04zm-43.26 8.39c2 1.33 6.12.7 6.38-1.83.22-2.15-1.39-2.85-3.06-3.19 1.38-.4 3.23-.76 4.62-1.3.45-.18 1.12-.37 1.18-.82.08-.69-.55-.84-1.24-.78-1.3.11-2.63.54-4.07.78a20.47 20.47 0 01-4.5.3c1.59.76 2.26 4.3 1.21 6.15-.14.26-.43.43-.52.69zM5.05 55.94C6.53 58.74 7.1 62 8.37 65a13.22 13.22 0 005.84 6.57 60.87 60.87 0 006.38 2.89 8.3 8.3 0 013.13 1.76 8.82 8.82 0 013.42-2.83c.35-.19 1.13-.44 1.33-.75.59-.9-.49-1.6-1.27-1.53-1.21.11-2.18 1.3-2.89 2-.18.17-.64.76-.89.79a3.85 3.85 0 01-1-.42l-3.2-1.3a21.5 21.5 0 01-7.29-4.62 12 12 0 01-2.16-3.86 59.71 59.71 0 00-3.45-8.49 24 24 0 00-2.45-3.51A10.24 10.24 0 000 48.47a15.26 15.26 0 002.57 3.75 23.38 23.38 0 012.48 3.72zm21 24.92a3.51 3.51 0 01-1.3-1.59c-.35-.67-.55-1.43-.88-2a3.31 3.31 0 00-1.37-1.3 34.45 34.45 0 00-4-1.66c-4-1.63-7.69-3.45-9.8-7.14-1.46-2.54-2.11-5.57-3-8.22a13.69 13.69 0 00-4.54-6.78C2.63 54.83 4 57 4.72 60.16a24.79 24.79 0 003.16 8.37c2.72 4 7.53 6 12.19 8a14.71 14.71 0 012 .89c.86.53 1.19 1.7 1.66 2.6a4.06 4.06 0 001.86 2 4.15 4.15 0 005.17-1.76 3.3 3.3 0 00-1.25-4.29 2.81 2.81 0 00-4.12 1.2 1.51 1.51 0 001.11 2.08c.75.07 1.12-.54 1.82-.26a.9.9 0 01.42.89c-.04 1.12-1.62 1.5-2.68.98zM76.11 67.1a20.92 20.92 0 003.8-4.52c1.35-2.43 1.24-6 2.37-8.73C81 55 80.8 56.89 80.33 58.8a13.53 13.53 0 01-4.17 6.71c-.91.85-2.13 1.69-2.59 2.84a9.32 9.32 0 00-.27 2.73 6.56 6.56 0 01-.45 2.28 4.43 4.43 0 01-8.28-.48 3.79 3.79 0 001.6 3.48 5.63 5.63 0 005.4 0 5.28 5.28 0 002.71-4 29.29 29.29 0 01.1-3c.26-1.09 1.02-1.55 1.73-2.26zM16.66 90.6c.11-1.13 1-1.77 1.4-2.67a2.49 2.49 0 00.12-.49 4.23 4.23 0 00-2.7-4.88c-1.86-.82-4.17-1.13-5.08-2.73-.4-.72-.57-1.5-.88-2.19a16.47 16.47 0 00-3.91-5.37 14.67 14.67 0 01-3-3.15 42.09 42.09 0 00-2.21-4 36.6 36.6 0 001.77 4.29 13.79 13.79 0 002.64 3.32A17.22 17.22 0 017.43 76a14.87 14.87 0 011.37 3.08c.12.37.17.8.32 1.17a6.54 6.54 0 003.46 2.8c1.57.71 3.56 1.16 4 2.86s-1.1 3-1.43 4.14a2.42 2.42 0 00.13 1.63c.14.2.66.69 1.14.45s.17-.98.24-1.53zm14-7.33a6.42 6.42 0 002.41-3.12 5.19 5.19 0 00.26-2.44c-.09-.59-.41-1.79-1.21-1.51-.36.14-.29 1-.26 1.6A5 5 0 0131 81a4.65 4.65 0 01-3.19 1.92 4.21 4.21 0 01-3.77-1.49 22.23 22.23 0 01-1.47-2.64c-.69-1-1.94-1.39-3.19-1.89a43.72 43.72 0 01-6.31-2.9 22.29 22.29 0 01-6.38-5.93C9 73.18 13.11 75.8 18.4 77.84a9.17 9.17 0 013 1.36c.7.73.91 1.84 1.49 2.71a5.38 5.38 0 003.33 2.18 6.28 6.28 0 004.43-.82zM16 86.31c-.11-1-.93-1.38-1.76-1.79-2.67-1.35-5.29-2.12-6-5.32a12.37 12.37 0 00-3.1-5.43 44.21 44.21 0 012.22 4.69c.18.55.24 1.15.42 1.86a6.21 6.21 0 003.06 3.51c.61.38 1.34.8 2.08 1.2s1.67.73 1.83 1.47c.25 1.15-.87 1.65-.81 2.58 1.29.3 2.2-1.55 2.06-2.77zm66.49-10.54c-.54.8-1.26 1.62-1.89 2.47a7.9 7.9 0 01-2 2.21 12.71 12.71 0 01-3 1.21 4.73 4.73 0 00-2.6 1.76 27 27 0 00-1.34 2.38 10 10 0 01-1.63 2.11c-.58.57-1.3 1.12-1.92 1.8A5.32 5.32 0 0066.7 92a1.44 1.44 0 00.16 1 1.9 1.9 0 001.21-.72 20.74 20.74 0 002.77-3.22 14 14 0 001.55-2.41 14.83 14.83 0 011.4-2.61c1.4-1.82 4.32-2 6.13-3.48l.06-.07a9.38 9.38 0 001.47-2.18 8.87 8.87 0 001.1-2.57s-.03.03-.06.03zm-27 9.93a8.81 8.81 0 012.83-.39 6.47 6.47 0 004-1.46c.89-.8 1-1.86 1.33-3.23a6.83 6.83 0 01.59-1.69c.37-.71 1-1.18 1-2.15-.35.38-.7.79-1 1.14s-.75.59-1 .94a3.19 3.19 0 00-.58 1.5 6.74 6.74 0 01-.52 1.64c-.87 1.92-3.11 2.3-5.69 2.48a4.74 4.74 0 00-2 .26c-.35.18-.61.63-.92.94a5.23 5.23 0 01-3.94 1.63 5.27 5.27 0 005-.85c.35-.27.55-.6.87-.76zM54.06 84a7.67 7.67 0 011.94-.18c2.79-.21 5.22-.77 5.61-3.32A6 6 0 0157 82.68h-2.19a3.91 3.91 0 00-1.81.62c-.89.57-1.31 1.48-2.15 1.92-2.13 1.12-4.87-.15-5-2.41-1.11 3.79 3.73 4.48 6 2.93.79-.52 1.33-1.45 2.21-1.74zM18 89.34a3.05 3.05 0 012 .35 7.29 7.29 0 00.55-2.93 6.11 6.11 0 00-2.34-4.43 9.19 9.19 0 00-5.29-1.53 19.58 19.58 0 002.37.91 6.5 6.5 0 012 1 4.53 4.53 0 011.71 3.2 5.19 5.19 0 01-.68 2.84c-.16.25-.32.43-.32.59zm30.11-8.12a1.51 1.51 0 00-1.42 1.59 2 2 0 002.08 2c1.81.12 2.3-1.22 3.58-2s2.86-.59 4.43-.75a1.93 1.93 0 001-.36 26 26 0 00-5.14.13 4.67 4.67 0 00-1.76 1 2.8 2.8 0 01-1.82.91 1.45 1.45 0 00-.93-2.52zm12.35 7.25a9.78 9.78 0 011.54 1.2 9.63 9.63 0 013.78-4.13c-2.78-.33-3.66 1.86-5.3 2.93zM20.62 90c0 .23.31.52.43.72a4 4 0 01.43 1.28 4.52 4.52 0 00-.33-5 4.4 4.4 0 01-.15 1.91 8.54 8.54 0 00-.38 1.09zm-1.49 4.53c1.25 0 2-1.17 1.82-2.54a2.63 2.63 0 00-2.25-2.12c-.63-.06-1 .05-1.23.42 1-.1 1.9.13 1.92.89a1 1 0 01-.26.71c-.37.38-1 .07-1.57.33a1 1 0 00-.31 1 2 2 0 001.88 1.29zm-2.95-43a21.08 21.08 0 01-12-9.77c-.17-.32-.27-.71-.52-.88a16.19 16.19 0 001.34 6A11.45 11.45 0 008.24 51a21.18 21.18 0 0010.23 4.69c-5.25.19-8.55-2-11.37-4.26A13.91 13.91 0 0012 57.2a10.9 10.9 0 003.51 1.8 20.3 20.3 0 004.84.43c-.46.72-1.73.75-2.82.75a14.36 14.36 0 004.63.81 20.14 20.14 0 01-2.23-4.37 12.15 12.15 0 00-.49-1.72 4.85 4.85 0 00-.45-.59 17.81 17.81 0 01-2.55-5 26.27 26.27 0 01-.88-11.4 4.5 4.5 0 00.19-1.24 4.58 4.58 0 00-.61-1.11 18.61 18.61 0 01-1.86-10.25c.3-3.87 1.49-7.52 3.78-9.41.15-.13.43-.22.38-.37a7.4 7.4 0 00-5.27 1.9 7.85 7.85 0 00-2.64 4.53 22.9 22.9 0 00.82 10.57 26.35 26.35 0 003.94 8.08 19.68 19.68 0 01-5.5-9.73c-1-4-1.15-9.91 1.13-12.7.06 0 .27-.21.13-.23-2.68.78-4.22 3.11-4.85 6a18.12 18.12 0 00.66 9.41 31.58 31.58 0 008.73 12.89 21.07 21.07 0 01-6.87-6.64 22.7 22.7 0 01-3.2-6.94c-.25-.92-.33-1.87-.52-2.86-.28.15-.25.52-.32.78a15.52 15.52 0 00-.46 2.87 14.23 14.23 0 003.26 10 30.49 30.49 0 009.7 8.04zM81 74.88c-.71.87-1.36 1.73-2 2.58a5.89 5.89 0 01-2.47 2.08 11.2 11.2 0 01-1.66.62 14.61 14.61 0 00-1.76.55 3.74 3.74 0 00-1.63 1.77A17.51 17.51 0 0169 86c-1.38 1.38-3.2 2.11-4.2 3.71a5.63 5.63 0 00-.71 2.34c-.09.75-.34 2.42.19 2.64a1.11 1.11 0 001.14-.45c.35-.66 0-1.5.13-2.25.28-1.88 2.07-3.14 3.22-4.2a13.36 13.36 0 002.32-2.64c.29-.47.59-1 .9-1.57a7.12 7.12 0 011-1.49c.7-.68 2-.84 2.9-1.21A8.36 8.36 0 0079.75 78c.32-.45.56-.94.85-1.41.88-1.41 1.68-2.67 2.68-4.07A22.66 22.66 0 0081 74.88zM65.56 87.69c.45-.34.94-.56 1.37-.85a11.3 11.3 0 003.29-3.35 9.67 9.67 0 012.27-3.16c1.57-1.15 4.09-1 5.37-2.58-1.39.44-3 1-4.4 1.43a5 5 0 00-2.11.94 14 14 0 00-1.85 2.64 9.29 9.29 0 01-2 2.47c-.69.52-1.42.87-2 1.31a7.89 7.89 0 00-3.25 5.2 9.6 9.6 0 01-.33 1.38 2.44 2.44 0 01-1.24 1.23c-.27.14-.6.2-.65.49-.11.76 1.11 1.14 1.85 1a2.09 2.09 0 001.44-1.37c.22-.8 0-2.16.19-3.08a6.3 6.3 0 012.05-3.7zM21.4 85.75c1 1.55 2.15 4.63.82 6.57-.22.34-.6.47-.78.79s-.15.48-.23.65A2.06 2.06 0 0119.78 95a3.22 3.22 0 01-2.11-.43 2.91 2.91 0 00.65.66c1.37.83 3.5.12 4.33-.72A5.66 5.66 0 0023.78 90a5.75 5.75 0 00-2.38-4.25zm39.6 6.3a1.36 1.36 0 00-1.51-1.55c-.71.13-.68 1.47-1.36 1.55a.86.86 0 01-.91-.64c-.15-.8.6-1.48 1.24-1.77a3.38 3.38 0 012.7.17 3.66 3.66 0 00-3.13-1.3c-1.49.17-3.23 1.54-3.16 3.19s2.12 2.56 3.65 2.4A2.93 2.93 0 0061 92.05zM27.37 8.41a9.64 9.64 0 012.27-3.58C31.93 2.35 35.57.88 39.74.31 40.6.18 41.56.09 42.5 0a31.32 31.32 0 0126.91 12.8 31 31 0 016.2 17.54 26.36 26.36 0 00-.73-8.46C73.17 15 69.48 10.13 65 5.93c-.63-.6-1.65-1.35-1.2-2.58a1.72 1.72 0 011-.81c1.83-.68 4.19.33 5.47 1 4.47 2.38 7.34 6.4 9 11.56a35.71 35.71 0 011.34 12.27 54 54 0 01-2 11.72c-.38-3-1.45-5.22-3.62-6.57-1.26-.79-3.36-1.33-4.65-.17-.16.15-.3.46-.46.36a7 7 0 01-.32-.77A25.22 25.22 0 0067 26.86c-1.59-2.37-3.93-4.89-7.71-5.33-1.31-.16-2.76 0-4.14-.23a8.11 8.11 0 01-3.25-1.1 3 3 0 01-1.37-3c.26-3 4.59-3.42 7.58-2.7 7.65 1.84 10.61 8.28 13.17 15.23-1.88-9.73-6.85-16.5-17.44-17.61A50.92 50.92 0 0038 13.4c-.79.16-1.56.4-2.37.55a15.91 15.91 0 01-2.74.16 6.12 6.12 0 01-4.4-1.46 3.91 3.91 0 01-1.12-4.24zm42 19.92a17.86 17.86 0 00-4.72-7.52 10.85 10.85 0 00-9.12-3.06 18.09 18.09 0 015 1.14c4.28 1.77 6.79 5.37 8.82 9.44zm6.8-11.21a39.93 39.93 0 011.4 13.39 31.32 31.32 0 00-.85-13.58c-1.26-3.86-3.1-7.2-6.09-9.08a21.93 21.93 0 015.52 9.27zM38.44 7l.78-.12a42.35 42.35 0 015-.43 30 30 0 0117.19 4.26c6 3.63 9.76 9.42 11.9 16.83-1.52-8-5.5-13.6-11.27-17.42A27.42 27.42 0 0044.82 5.9a26 26 0 00-6.21 1c-.38.1-.52.16-.17.1zm-1.56 114.62v-7.2h-5.74l-17.53 15.3v-9.28h2.5v-6.34h-12v6.34H7v22.61H4.07v6.34h12.05v-6.34h-2.5v-10.38l16.71 16.69h6.57v-7.26h-4.67L21.5 131.25l11.19-9.62zm27.21 27.76h12.24v-6.24h-2.59l-10.6-28.32h-9.46l-10.83 28.32h-2.59v6.24h12.12v-6.25h-2.1l1.79-5h12.21l1.79 5h-2zm-6-28.3l4.35 12.12h-8.61zm243 28.22h12.23v-6.24h-2.58l-10.6-28.32h-9.47l-10.82 28.32h-2.59v6.24h12.12v-6.25h-2.1l1.78-5h12.22l1.79 5h-2zm-6-28.29l4.35 12.11h-8.65zM113.2 132a17.57 17.57 0 01-2.28 8.75 17.68 17.68 0 01-2.63 3.51 16.79 16.79 0 01-3.42 2.71 16.34 16.34 0 01-4.06 1.75 17.06 17.06 0 01-4.55.62H80.59v-6.25h2.47v-22h-2.48v-6.27h15.67a16.81 16.81 0 0112 5 16.83 16.83 0 012.64 3.47 17 17 0 011.68 4.13 17.48 17.48 0 01.63 4.58zm-8 0a12.62 12.62 0 00-.71-4.31 11.61 11.61 0 00-1.91-3.49 9.08 9.08 0 00-2.85-2.33 7.58 7.58 0 00-3.49-.84h-5.89v22.05h5.86a7.3 7.3 0 003.48-.87 9 9 0 002.85-2.36 11.64 11.64 0 001.92-3.51 13.08 13.08 0 00.71-4.34zm34.8 17.34a17.93 17.93 0 004.21-1.8 17.4 17.4 0 003.54-2.8 17.64 17.64 0 002.73-3.62 18.21 18.21 0 002.38-9 18.06 18.06 0 00-5.12-12.69 17.4 17.4 0 00-12.48-5.23 17.41 17.41 0 00-4.72.64 17.86 17.86 0 00-4.2 1.8 17.4 17.4 0 00-3.54 2.8A17.16 17.16 0 00120 123a19 19 0 00-1.75 4.29 18.37 18.37 0 00-.62 4.78 17.81 17.81 0 00.63 4.76 18.51 18.51 0 001.75 4.28 17.29 17.29 0 006.26 6.41 17.62 17.62 0 0013.65 1.8zm-8.57-7.34a9.23 9.23 0 01-3-2.33 11 11 0 01-2-3.42 12.07 12.07 0 01-.71-4.13 12.27 12.27 0 01.71-4.18 11.1 11.1 0 012-3.43 9.37 9.37 0 013-2.33 8.83 8.83 0 017.56 0 9.38 9.38 0 013 2.33 10.61 10.61 0 011.95 3.43 12.17 12.17 0 01.7 4.17 12.57 12.57 0 01-.68 4.14 10.81 10.81 0 01-1.93 3.42 9.13 9.13 0 01-3 2.32 8.51 8.51 0 01-3.82.86 8.39 8.39 0 01-3.78-.85zm135.23-21h2.41l-5.33 19.44L258 116.7h-8.55l-5.87 23.75-5.34-19.45h2.16v-6.27h-12.61V121h3.08l8.13 28.32h9.38l5.33-21.57 5.23 21.57h9.46l7.95-28.3H279v-6.27h-12.34zm89.77 4.23v-7.71h-5.36a14.6 14.6 0 00-4.43-2.74 15.11 15.11 0 00-5-.7 16.84 16.84 0 00-6.88 1.41 17.43 17.43 0 00-5.56 3.83 18 18 0 00-3.7 5.68 17.77 17.77 0 00-1.36 7 18.56 18.56 0 002.37 9.06 17.63 17.63 0 002.72 3.64 17.33 17.33 0 0012.46 5.24 18 18 0 005.45-.8 17 17 0 004.55-2.19 14.89 14.89 0 003.46-3.3 14.33 14.33 0 002.17-4.13l-7.71-2.05a8 8 0 01-1.19 2 9.09 9.09 0 01-4.05 2.85 7.81 7.81 0 01-2.68.45 8.4 8.4 0 01-3.78-.86 9.31 9.31 0 01-3-2.31 10.88 10.88 0 01-1.95-3.41 12.16 12.16 0 01-.71-4.16 11.86 11.86 0 01.72-4.14 11.09 11.09 0 012-3.42 9.35 9.35 0 013-2.32 8.15 8.15 0 013.73-.86 10.15 10.15 0 012.61.33 7.19 7.19 0 012.33 1.09 11.7 11.7 0 012.41 2.59zm5.19 16.93a11.78 11.78 0 006.54 6.67 14.1 14.1 0 0010.38 0 11.88 11.88 0 006.57-6.7 13.18 13.18 0 00.9-4.88 12.76 12.76 0 00-.93-4.87 12.07 12.07 0 00-6.61-6.65 13 13 0 00-5.11-1 12.82 12.82 0 00-5.1 1 12.41 12.41 0 00-4 2.69 12.29 12.29 0 00-2.61 4 12.58 12.58 0 00-.94 4.87 13 13 0 00.91 4.88zm6.38-7.46a5.88 5.88 0 011.25-2 5.43 5.43 0 011.84-1.22 5.58 5.58 0 012.24-.41 5.82 5.82 0 012.26.4 5.29 5.29 0 011.81 1.23 5.69 5.69 0 011.21 1.95 7.26 7.26 0 01.44 2.57 7 7 0 01-.44 2.52 6 6 0 01-1.2 2 5.32 5.32 0 01-1.82 1.28 5.79 5.79 0 01-4.5 0 5.74 5.74 0 01-1.83-1.29 6.11 6.11 0 01-1.26-2 6.73 6.73 0 01-.46-2.49 7 7 0 01.46-2.54zm40.5 14.54h9.85V143H416v-8.52c0-3.08-.78-5.42-2.32-7a8.79 8.79 0 00-6.62-2.39 11.24 11.24 0 00-3.89.67 12.34 12.34 0 00-3.34 1.85v-2.09H390v6.29h2.41V143H390v6.29h12.59V143h-2.7v-9.16a6.48 6.48 0 012.36-2 6.05 6.05 0 012.41-.52 3.61 3.61 0 012.8 1.13 4.41 4.41 0 011.06 3.14zm33.51 0h9.85v-6.29h-2.37v-8.52q0-4.62-2.32-7a8.73 8.73 0 00-6.61-2.39 11.3 11.3 0 00-3.9.67 12.49 12.49 0 00-3.34 1.85v-2.09h-9.8v6.29H426v11.2h-2.45v6.3h12.6v-6.29h-2.7v-9.16a6.4 6.4 0 012.37-2 6 6 0 012.41-.53 3.65 3.65 0 012.8 1.14 4.44 4.44 0 011.06 3.13zm37.67-10.41a11.45 11.45 0 000-1.16 10.92 10.92 0 00-.08-1.14 15.12 15.12 0 00-.87-4.77 11.48 11.48 0 00-2.3-3.85 10.44 10.44 0 00-3.66-2.57 12.57 12.57 0 00-5-.93 12.73 12.73 0 00-5.09 1 11.92 11.92 0 00-6.51 6.71 13.31 13.31 0 00-.91 4.91 14.14 14.14 0 00.87 5 11.5 11.5 0 006.56 6.85 14 14 0 005.51 1 22.15 22.15 0 002.89-.17 13.81 13.81 0 002.34-.54 16 16 0 002.19-.93c.73-.38 1.53-.83 2.4-1.37l-2.52-4.71c-.57.22-1.13.42-1.68.61s-1.12.36-1.7.51a16.86 16.86 0 01-1.8.34 13.73 13.73 0 01-2 .13 8.35 8.35 0 01-2.05-.26 6.73 6.73 0 01-1.84-.79 5.76 5.76 0 01-1.43-1.31 4.72 4.72 0 01-.86-1.82l-.07-.71zm-10-8.37a3.69 3.69 0 011.34.84 3.89 3.89 0 01.83 1.21 8.4 8.4 0 01.46 1.47h-9.95a6.76 6.76 0 01.58-1.45 4.26 4.26 0 011-1.23 4.71 4.71 0 011.53-.85 6.72 6.72 0 012.19-.31 5.76 5.76 0 012.05.31zm37.85 3.19v-6.91H503a12.9 12.9 0 00-3.44-1.58 11.19 11.19 0 00-3.74-.44 12 12 0 00-5 .85 11.86 11.86 0 00-4 2.63 12.38 12.38 0 00-3.58 8.86 13.28 13.28 0 00.93 5 12.58 12.58 0 002.58 4 12.22 12.22 0 003.95 2.72 12.62 12.62 0 005 1 13.25 13.25 0 004.79-.81 13.48 13.48 0 003.63-2 11.49 11.49 0 002.48-2.72 11.17 11.17 0 001.34-2.88l-6.32-1.74a7.63 7.63 0 01-.76 1.32 6.48 6.48 0 01-1.19 1.27 5.92 5.92 0 01-1.57.91 6.62 6.62 0 01-2 .45 7.34 7.34 0 01-2.38-.55 5.58 5.58 0 01-1.88-1.27 5.84 5.84 0 01-1.25-1.94 6.4 6.4 0 01-.47-2.39 7.12 7.12 0 01.44-2.56 5.73 5.73 0 011.23-2 5.63 5.63 0 011.88-1.29 5.21 5.21 0 012.42-.37 5.48 5.48 0 012.87.54 6.9 6.9 0 012.21 1.87zM522 120.32h-7.14l-.05 5.1h-3.44v6h3.42L514.7 142a9 9 0 00.55 3.42 7.12 7.12 0 001.54 2.45 6.17 6.17 0 002.21 1.43 7.52 7.52 0 002.67.48 11.77 11.77 0 003.41-.44 10.69 10.69 0 002.61-1.17l-1-4.43c-.44.15-.89.28-1.33.4a6.48 6.48 0 01-1.54.17 3.13 3.13 0 01-.85-.11 1.3 1.3 0 01-.63-.44 2.09 2.09 0 01-.4-.86 5.48 5.48 0 01-.14-1.41v-10.06h4.8v-6h-4.76zm32.53 18.47a12 12 0 000-2.3 15.34 15.34 0 00-.87-4.76 11.69 11.69 0 00-2.3-3.86 10.52 10.52 0 00-3.67-2.57 12.48 12.48 0 00-5-.93 12.73 12.73 0 00-5.09 1 11.92 11.92 0 00-6.51 6.71 13.14 13.14 0 00-.91 4.91 14.1 14.1 0 00.87 5 11.62 11.62 0 002.5 4.09 11.85 11.85 0 004 2.77 14.06 14.06 0 005.51 1 20.45 20.45 0 002.9-.18 12.3 12.3 0 002.34-.54 14.23 14.23 0 002.19-.93c.73-.37 1.53-.83 2.4-1.37l-2.53-4.7c-.56.21-1.12.42-1.67.61s-1.12.36-1.7.5a16.86 16.86 0 01-1.8.35 15.39 15.39 0 01-2 .13 7.83 7.83 0 01-2-.27 6.32 6.32 0 01-1.84-.79 5.57 5.57 0 01-1.43-1.31 4.54 4.54 0 01-.86-1.81l-.07-.71zm-10-8.37a3.79 3.79 0 011.35.84 3.75 3.75 0 01.82 1.22 7 7 0 01.46 1.47h-9.94a7.53 7.53 0 01.57-1.45 4.43 4.43 0 011-1.22 4.35 4.35 0 011.53-.85 6.66 6.66 0 012.19-.32 5.9 5.9 0 011.98.31zm27.76-10.67h2.66v6a12.41 12.41 0 00-2.5-.82 13.16 13.16 0 00-2.8-.28 12.55 12.55 0 00-5 1 11.91 11.91 0 00-3.88 2.64 12.28 12.28 0 00-2.53 3.94 13.11 13.11 0 00-.9 4.88 12.92 12.92 0 00.92 4.91 12.1 12.1 0 002.56 4 11.8 11.8 0 003.93 2.67 12.61 12.61 0 005 1 9.77 9.77 0 002.63-.37 13.71 13.71 0 002.54-1v.92h9.86v-6.29H582v-29.5h-9.74zm-4.35 23.1a5.49 5.49 0 01-1.83-1.2 5.87 5.87 0 01-1.26-1.93 7.27 7.27 0 010-5.09 6 6 0 011.25-1.93 5.64 5.64 0 011.84-1.24 6.1 6.1 0 014.94.24 5.63 5.63 0 012.08 1.89v7a6.56 6.56 0 01-2 1.93 5.6 5.6 0 01-2.75.78 6.68 6.68 0 01-2.31-.45zm-378.25-21.28v-7.2H184l-17.52 15.29v-9.27h2.5v-6.34h-12v6.33h2.92V143h-2.91v6.34h12.05V143h-2.5v-10.38l16.71 16.69h6.56v-7.26h-4.65l-10.84-10.85 11.19-9.63zm27.74 27.75h12.23v-6.25h-2.58l-10.6-28.31H207l-10.82 28.31h-2.58v6.24h12.12v-6.25h-2.1l1.78-5h12.22l1.79 5h-2zm-6-28.29l4.36 12.12h-8.65zm462.77 12.55v-6.91h-4.57a13.1 13.1 0 00-3.45-1.58 11.46 11.46 0 00-3.74-.44 12 12 0 00-5 .86 11.67 11.67 0 00-4 2.63 12.15 12.15 0 00-2.63 4 12.59 12.59 0 00-.95 4.9 13.21 13.21 0 00.93 5 12.23 12.23 0 002.59 4 11.86 11.86 0 004 2.72 12.36 12.36 0 005 1 13.08 13.08 0 008.42-2.84 11.49 11.49 0 002.48-2.72 11.12 11.12 0 001.34-2.87l-6.31-1.74a8.57 8.57 0 01-.77 1.32 7 7 0 01-1.18 1.26 6 6 0 01-1.58.92 6.62 6.62 0 01-2 .45 7.61 7.61 0 01-2.38-.55 5.7 5.7 0 01-1.88-1.28 5.84 5.84 0 01-1.25-1.94 6.15 6.15 0 01-.46-2.38 7.18 7.18 0 01.43-2.57 5.82 5.82 0 011.23-2 5.73 5.73 0 011.88-1.29 8.19 8.19 0 015.3.17 7 7 0 012.2 1.88zm-76-13.67h3.7v22.82h-3.7v6.46h15.3v-6.46h-3.77V119.9h3.77v-6.46h-15.3zm78.95 27a4.27 4.27 0 001 1.45 5 5 0 001.47 1 4.61 4.61 0 001.84.36 4.38 4.38 0 001.77-.36 4.78 4.78 0 001.45-1 4.56 4.56 0 001-1.47 4.43 4.43 0 00.37-1.8 4.53 4.53 0 00-.36-1.78 4.4 4.4 0 00-1-1.48 4.85 4.85 0 00-1.47-1 4.45 4.45 0 00-1.77-.36 4.62 4.62 0 00-1.82.36 4.57 4.57 0 00-2.46 2.48 4.62 4.62 0 00-.34 1.78 5 5 0 00.33 1.83zm-39.85 2.24h9.85v-6.29h-2.35v-8.52c0-3.08-.78-5.41-2.33-7a8.76 8.76 0 00-6.61-2.4 11.25 11.25 0 00-3.89.68 12.07 12.07 0 00-3.34 1.85v-2.09h-9.81v6.29h2.41v11.21h-2.46v6.29h12.6v-6.3h-2.7v-9.17a6.34 6.34 0 012.36-2 6.07 6.07 0 012.41-.53 3.66 3.66 0 012.8 1.13 4.42 4.42 0 011.06 3.14z" fill="white" data-name="レイヤー 1"/></g></svg>
